<svg id="圖層_1" data-name="圖層 1" xmlns="http://www.w3.org/2000/svg" viewBox="0 0 62.36 62.36"><defs><style>.cls-1{fill:#fff;}.cls-2{fill:#3b5745;}.cls-3{fill:#125eac;}.cls-4{fill:#272727;}</style></defs><title>logo</title><circle class="cls-1" cx="31.18" cy="31.18" r="31.18"/><path class="cls-2" d="M33.69,9.25v2.1a.42.42,0,0,0,.43.42l15.11,0a.42.42,0,0,0,.42-.42V9.25a.42.42,0,0,0-.42-.43H34.12A.43.43,0,0,0,33.69,9.25Z"/><path class="cls-3" d="M37.49,38.5,36.3,40.37a.75.75,0,0,1-1.2.19l-.76-.72a2.32,2.32,0,0,1-.65-1.64V15.65a.4.4,0,0,1,.34-.43h3.29a.39.39,0,0,1,.34.43V37.88A1.2,1.2,0,0,1,37.49,38.5Z"/><rect class="cls-3" x="39.63" y="17.23" width="4" height="17.99" rx="0.43"/><rect class="cls-3" x="45.6" y="15.25" width="3.97" height="20.94" rx="0.42"/><path class="cls-4" d="M27.82,53.18A15,15,0,0,1,20.67,53c-4.57-1.56-7.66-5-8-10.12V31.51a.42.42,0,0,1,.43-.42H29.2a.42.42,0,0,1,.42.42c0,1.37,0,5.69,0,7.65.05,8,1.77,9.86,8,9.93s8.08-2.2,8-9.42a.42.42,0,0,1,.42-.44h3.14a.41.41,0,0,1,.43.42c0,5.93-.8,13.3-12.11,13.3-10.08,0-11.77-4.52-11.88-10.74V35.64a.43.43,0,0,0-.43-.43H18a.42.42,0,0,0-.43.42l0,6.95c.14,3.87.78,4,4.24,5.93l.08,0c3.19,1,2,.77,4.69.68a22.72,22.72,0,0,1,2.38,2.48C30,52.91,27.82,53.18,27.82,53.18Z"/></svg>